HIERARCHY
ROOT Hips
{
	OFFSET 0.000000 0.000000 0.000000
	CHANNELS 6 Xposition Yposition Zposition Xrotation Yrotation Zrotation
	JOINT C_ctrl
	{
		OFFSET 0.000000 35.040482 -0.000011
		CHANNELS 3 Xrotation Yrotation Zrotation
		JOINT Bip01
		{
			OFFSET -41.537640 41.789009 -0.000007
			CHANNELS 3 Xrotation Yrotation Zrotation
			JOINT Bip01_Pelvis
			{
				OFFSET -2.462887 0.000000 0.000000
				CHANNELS 3 Xrotation Yrotation Zrotation
				JOINT BN_Tail_01
				{
					OFFSET -11.399368 7.351341 -0.000013
					CHANNELS 3 Xrotation Yrotation Zrotation
					JOINT BN_Tail_02
					{
						OFFSET -11.365196 -0.343025 0.000012
						CHANNELS 3 Xrotation Yrotation Zrotation
						JOINT BN_Tail_03
						{
							OFFSET -15.076256 -0.454979 0.000017
							CHANNELS 3 Xrotation Yrotation Zrotation
							JOINT BN_Tail_04
							{
								OFFSET -17.395691 -0.525002 0.000016
								CHANNELS 3 Xrotation Yrotation Zrotation
								JOINT BN_Tail_05
								{
									OFFSET -16.699837 -0.504005 0.000016
									CHANNELS 3 Xrotation Yrotation Zrotation
									End Site
									{
										OFFSET 0.503998 -16.699829 0.000067
									}
								}
							}
						}
					}
				}
				JOINT Bip01_Spine
				{
					OFFSET 8.297798 5.916809 -0.000020
					CHANNELS 3 Xrotation Yrotation Zrotation
					JOINT Bip01_R_Thigh
					{
						OFFSET -8.297779 -5.916794 10.541781
						CHANNELS 3 Xrotation Yrotation Zrotation
						JOINT Bip01_R_Calf
						{
							OFFSET 5.631542 -22.906792 0.862690
							CHANNELS 3 Xrotation Yrotation Zrotation
							JOINT Bip01_R_HorseLink
							{
								OFFSET -16.984341 -19.231926 -3.555767
								CHANNELS 3 Xrotation Yrotation Zrotation
								JOINT Bip01_R_Foot
								{
									OFFSET 4.290367 -24.783146 0.578056
									CHANNELS 3 Xrotation Yrotation Zrotation
									JOINT Bip01_R_Toe0
									{
										OFFSET 3.561211 -5.815116 0.760802
										CHANNELS 3 Xrotation Yrotation Zrotation
										JOINT Bip01_R_Toe0Nub
										{
											OFFSET 16.135469 0.002017 1.534789
											CHANNELS 3 Xrotation Yrotation Zrotation
											End Site
											{
												OFFSET -0.000002 16.208284 -0.000056
											}
										}
									}
								}
							}
						}
					}
					JOINT Bip01_L_Thigh
					{
						OFFSET -8.297813 -5.916832 -10.541739
						CHANNELS 3 Xrotation Yrotation Zrotation
						JOINT Bip01_L_Calf
						{
							OFFSET 5.631535 -22.906792 -0.862625
							CHANNELS 3 Xrotation Yrotation Zrotation
							JOINT Bip01_L_HorseLink
							{
								OFFSET -16.984318 -19.231949 3.555875
								CHANNELS 3 Xrotation Yrotation Zrotation
								JOINT Bip01_L_Foot
								{
									OFFSET 4.290367 -24.783169 -0.577965
									CHANNELS 3 Xrotation Yrotation Zrotation
									JOINT Bip01_L_Toe0
									{
										OFFSET 3.561245 -5.815111 -0.760799
										CHANNELS 3 Xrotation Yrotation Zrotation
										JOINT Bip01_L_Toe0Nub
										{
											OFFSET 6.574303 -0.000005 -1.538561
											CHANNELS 3 Xrotation Yrotation Zrotation
											End Site
											{
												OFFSET 0.000004 -6.751935 0.000023
											}
										}
									}
								}
							}
						}
					}
					JOINT Bip01_Spine1
					{
						OFFSET 20.556803 -4.626213 -0.000025
						CHANNELS 3 Xrotation Yrotation Zrotation
						JOINT Saddle
						{
							OFFSET 17.608810 18.174690 -0.000143
							CHANNELS 3 Xrotation Yrotation Zrotation
							End Site
							{
								OFFSET -0.000063 -0.000061 -22.448387
							}
						}
						JOINT BN_center
						{
							OFFSET 10.743275 -13.417107 -0.172041
							CHANNELS 3 Xrotation Yrotation Zrotation
							End Site
							{
								OFFSET 22.434088 0.553078 -0.579614
							}
						}
						JOINT Bip01_Spine2
						{
							OFFSET 24.765072 -2.054115 -0.000032
							CHANNELS 3 Xrotation Yrotation Zrotation
							JOINT Handle
							{
								OFFSET 63.735676 16.430748 -16.052464
								CHANNELS 3 Xrotation Yrotation Zrotation
								JOINT IK_Chain01
								{
									OFFSET -4.713058 -6.020439 0.185448
									CHANNELS 3 Xrotation Yrotation Zrotation
									End Site
									{
										OFFSET -0.000023 -0.000023 -7.648071
									}
								}
							}
							JOINT BN_hair04_01
							{
								OFFSET 1.987491 16.256981 -2.049672
								CHANNELS 3 Xrotation Yrotation Zrotation
								JOINT BN_hair04_02
								{
									OFFSET -1.318762 -3.831451 -6.174704
									CHANNELS 3 Xrotation Yrotation Zrotation
									JOINT BN_hair04_03
									{
										OFFSET -0.827490 -5.886627 -5.656666
										CHANNELS 3 Xrotation Yrotation Zrotation
										End Site
										{
											OFFSET -2.658262 5.010620 -5.929780
										}
									}
								}
							}
							JOINT Bip01_Neck
							{
								OFFSET 25.574577 9.433014 -0.000084
								CHANNELS 3 Xrotation Yrotation Zrotation
								JOINT Bip01_R_Clavicle
								{
									OFFSET -16.535652 0.011192 6.705692
									CHANNELS 3 Xrotation Yrotation Zrotation
									JOINT Bip01_R_UpperArm
									{
										OFFSET 20.272621 -12.959984 2.510816
										CHANNELS 3 Xrotation Yrotation Zrotation
										JOINT Bip01_R_Forearm
										{
											OFFSET -13.633509 -15.503704 -0.653585
											CHANNELS 3 Xrotation Yrotation Zrotation
											JOINT Bip01_R_Hand
											{
												OFFSET 2.580030 -27.804676 -1.136415
												CHANNELS 3 Xrotation Yrotation Zrotation
												JOINT Bip01_R_Finger0
												{
													OFFSET -0.281744 -19.659061 -0.398649
													CHANNELS 3 Xrotation Yrotation Zrotation
													JOINT Bip01_Xtra02
													{
														OFFSET 4.152210 -5.712314 0.433813
														CHANNELS 3 Xrotation Yrotation Zrotation
														JOINT Bip01_Xtra02Nub
														{
															OFFSET 15.457960 0.041654 0.507982
															CHANNELS 3 Xrotation Yrotation Zrotation
															End Site
															{
																OFFSET -15.421730 -0.157725 -1.163459
															}
														}
													}
													JOINT Bip01_R_Finger0Nub
													{
														OFFSET 8.362326 -9.718440 -0.143142
														CHANNELS 3 Xrotation Yrotation Zrotation
														End Site
														{
															OFFSET -1.213036 -0.198171 9.872291
														}
													}
												}
											}
										}
									}
								}
								JOINT Bip01_L_Clavicle
								{
									OFFSET -16.535673 0.011162 -6.705583
									CHANNELS 3 Xrotation Yrotation Zrotation
									JOINT Bip01_L_UpperArm
									{
										OFFSET 20.272615 -12.959999 -2.510836
										CHANNELS 3 Xrotation Yrotation Zrotation
										JOINT Bip01_L_Forearm
										{
											OFFSET -13.633495 -15.503681 0.653678
											CHANNELS 3 Xrotation Yrotation Zrotation
											JOINT Bip01_L_Hand
											{
												OFFSET 2.579988 -27.804686 1.136487
												CHANNELS 3 Xrotation Yrotation Zrotation
												JOINT Bip01_L_Finger0
												{
													OFFSET -0.281765 -19.659058 0.398696
													CHANNELS 3 Xrotation Yrotation Zrotation
													JOINT Bip01_Xtra01
													{
														OFFSET 4.083549 -5.738758 -0.666714
														CHANNELS 3 Xrotation Yrotation Zrotation
														JOINT Bip01_Xtra01Nub
														{
															OFFSET 6.758158 -0.395525 -0.023239
															CHANNELS 3 Xrotation Yrotation Zrotation
															End Site
															{
																OFFSET 6.764923 -0.254147 -0.029908
															}
														}
													}
													JOINT Bip01_L_Finger0Nub
													{
														OFFSET -0.012636 -9.629153 0.045740
														CHANNELS 3 Xrotation Yrotation Zrotation
														End Site
														{
															OFFSET 0.988407 0.004791 8.293357
														}
													}
												}
											}
										}
									}
								}
								JOINT BN_hair03_01
								{
									OFFSET -5.894140 16.270622 -2.498433
									CHANNELS 3 Xrotation Yrotation Zrotation
									JOINT BN_hair03_02
									{
										OFFSET -0.189278 -7.800507 -6.219162
										CHANNELS 3 Xrotation Yrotation Zrotation
										JOINT BN_hair03_03
										{
											OFFSET 0.612345 -10.844475 -3.370718
											CHANNELS 3 Xrotation Yrotation Zrotation
											End Site
											{
												OFFSET -2.273296 2.862007 -10.769416
											}
										}
									}
								}
								JOINT Bip01_Neck1
								{
									OFFSET 9.383755 11.908699 -0.000007
									CHANNELS 3 Xrotation Yrotation Zrotation
									JOINT BN_hair02_01
									{
										OFFSET 9.126320 18.808022 -1.420810
										CHANNELS 3 Xrotation Yrotation Zrotation
										JOINT BN_hair02_02
										{
											OFFSET 0.393478 -5.181091 -5.248574
											CHANNELS 3 Xrotation Yrotation Zrotation
											JOINT BN_hair02_03
											{
												OFFSET 0.762280 -8.167076 -0.230047
												CHANNELS 3 Xrotation Yrotation Zrotation
												End Site
												{
													OFFSET -0.025837 -1.251419 -8.109770
												}
											}
										}
									}
									JOINT Bip01_Head
									{
										OFFSET 14.266129 10.475403 -0.000008
										CHANNELS 3 Xrotation Yrotation Zrotation
										JOINT BN_Reins_01
										{
											OFFSET 18.547455 -15.740112 -0.000035
											CHANNELS 3 Xrotation Yrotation Zrotation
											JOINT BN_Reins_02
											{
												OFFSET -5.372810 -5.884506 0.000028
												CHANNELS 3 Xrotation Yrotation Zrotation
												JOINT BN_Reins_03
												{
													OFFSET -6.395866 -15.947449 0.000070
													CHANNELS 3 Xrotation Yrotation Zrotation
													JOINT BN_Halter_R_01
													{
														OFFSET -1.234055 -3.096100 7.096737
														CHANNELS 3 Xrotation Yrotation Zrotation
														End Site
														{
															OFFSET 10.514435 -4.176861 -0.000004
														}
													}
													JOINT BN_Halter_L_01
													{
														OFFSET -1.234062 -3.096146 -7.096726
														CHANNELS 3 Xrotation Yrotation Zrotation
														End Site
														{
															OFFSET -10.514435 4.176865 -0.000000
														}
													}
													JOINT BN_Reins_04
													{
														OFFSET -6.737644 -16.971684 0.000074
														CHANNELS 3 Xrotation Yrotation Zrotation
														JOINT BN_Halter_R_02
														{
															OFFSET -4.688869 -11.781956 7.096771
															CHANNELS 3 Xrotation Yrotation Zrotation
															End Site
															{
																OFFSET 14.669624 -5.827511 -0.000006
															}
														}
														JOINT BN_Halter_L_02
														{
															OFFSET -4.688892 -11.782017 -7.096693
															CHANNELS 3 Xrotation Yrotation Zrotation
															End Site
															{
																OFFSET -14.669624 5.827507 -0.000002
															}
														}
														JOINT BN_Reins_05
														{
															OFFSET -6.822578 -16.971161 0.000074
															CHANNELS 3 Xrotation Yrotation Zrotation
															JOINT BN_Reins_06
															{
																OFFSET -6.140354 -15.095148 0.000066
																CHANNELS 3 Xrotation Yrotation Zrotation
																End Site
																{
																	OFFSET -15.095150 6.140352 -0.000002
																}
															}
														}
													}
												}
											}
										}
										JOINT BN_hair01_01
										{
											OFFSET 8.957344 8.870956 0.112121
											CHANNELS 3 Xrotation Yrotation Zrotation
											JOINT BN_hair01_02
											{
												OFFSET 6.002075 -2.962952 -3.121264
												CHANNELS 3 Xrotation Yrotation Zrotation
												End Site
												{
													OFFSET 5.917702 3.813591 -2.232396
												}
											}
										}
										JOINT BN_Eyebrow_R
										{
											OFFSET 11.795959 -0.430496 4.449781
											CHANNELS 3 Xrotation Yrotation Zrotation
											JOINT Bip01_Xtra06Nub
											{
												OFFSET 2.936661 -0.262573 3.246701
												CHANNELS 3 Xrotation Yrotation Zrotation
												End Site
												{
													OFFSET 2.768745 0.208199 3.394807
												}
											}
										}
										JOINT BN_Eyebrow_L
										{
											OFFSET 11.586395 -0.445618 -4.441728
											CHANNELS 3 Xrotation Yrotation Zrotation
											JOINT Bip01_Xtra05Nub
											{
												OFFSET 3.244698 -0.349442 -4.416700
												CHANNELS 3 Xrotation Yrotation Zrotation
												End Site
												{
													OFFSET 3.053162 0.072495 -4.564033
												}
											}
										}
										JOINT Bip01_R_Ear_01
										{
											OFFSET 7.142960 7.567184 4.311657
											CHANNELS 3 Xrotation Yrotation Zrotation
											JOINT Bip01_Xtra04Nub
											{
												OFFSET 9.464531 9.264214 1.682953
												CHANNELS 3 Xrotation Yrotation Zrotation
												End Site
												{
													OFFSET 8.448181 10.159340 1.910823
												}
											}
										}
										JOINT Bip01__L_Ear_01
										{
											OFFSET 7.214943 7.717056 -4.356771
											CHANNELS 3 Xrotation Yrotation Zrotation
											JOINT Bip01_Xtra03Nub
											{
												OFFSET 9.230225 8.944366 -2.322746
												CHANNELS 3 Xrotation Yrotation Zrotation
												End Site
												{
													OFFSET 8.170288 9.841324 -2.643566
												}
											}
										}
										JOINT Bip01_Jaw
										{
											OFFSET 9.196068 -4.110695 -0.000013
											CHANNELS 3 Xrotation Yrotation Zrotation
											JOINT Bip01_Ponytail1Nub
											{
												OFFSET 10.976463 -21.082108 -0.000053
												CHANNELS 3 Xrotation Yrotation Zrotation
												End Site
												{
													OFFSET 11.247093 -20.938980 0.000113
												}
											}
										}
										JOINT Bip01_HeadNub
										{
											OFFSET 29.954575 -18.249489 -0.000063
											CHANNELS 3 Xrotation Yrotation Zrotation
											End Site
											{
												OFFSET -9.198448 -13.366348 0.000168
											}
										}
									}
								}
							}
						}
					}
				}
			}
		}
	}
}
MOTION
Frames: 4
Frame Time: 0.033333
0.000000 0.000000 0.000000 0.000008 0.000000 -0.000000 -0.000000 0.000000 -0.000000 0.000000 0.000000 -0.000006 0.003491 -0.000000 -0.000008 0.582232 -2.533831 22.722202 -1.423532 3.067918 23.653107 -0.420584 1.153913 21.214265 0.327668 -0.922997 11.724999 0.203947 -1.572312 6.770907 0.143672 0.000484 10.382443 -6.188539 5.668573 -7.202177 0.531246 0.016600 -2.692617 0.030950 0.001685 -0.156955 6.395005 -4.509060 0.248393 0.000728 -0.000019 -0.003715 0.000101 -0.000137 0.000004 1.166992 -4.088415 -25.334666 1.988942 0.287765 10.188848 -0.033922 -0.001830 -0.172180 -4.327441 3.681745 5.057116 -0.000888 0.000036 -0.003709 0.008859 -0.000620 0.038562 0.143184 -0.019006 -11.498069 0.917530 -0.020778 6.784392 1.532433 -0.153324 -0.014729 -0.052408 1.540617 -5.471444 0.000078 -0.000112 -0.000056 -0.000052 -0.014928 0.015042 -0.008338 0.000153 0.012285 -1.358236 0.409826 -0.217203 4.630800 -0.692459 0.247576 3.912570 0.384486 -20.925963 -3.451295 -1.873367 20.031724 -3.207962 -0.975643 4.844459 -0.000579 -0.130353 3.178485 7.444565 1.278306 -1.147230 -3.074511 -0.038697 0.688096 -1.003059 -0.004126 -0.069958 -0.802180 0.160590 -0.479873 -0.804184 0.123489 -0.482624 -3.552863 -1.707594 20.499771 2.899527 -2.371097 6.291642 -0.001239 -0.031386 -0.766036 -8.638696 -2.083549 3.589020 4.960862 0.006871 -0.600853 2.691733 2.076474 -0.752314 0.036619 0.063819 2.451840 -0.000913 0.100574 2.451955 0.002747 0.002857 -0.005112 -0.084337 0.071525 -0.302021 1.004460 -0.953118 3.769604 -0.126582 1.503369 -6.994504 -0.020470 0.003925 0.021261 1.575987 0.281607 -4.546335 -1.621264 -1.255061 -7.201855 -3.002041 -4.940461 29.017362 -0.000029 0.000324 33.480057 -0.441787 -0.458728 -72.796129 -0.000060 -0.000072 -21.993998 0.000020 -0.000008 -0.026805 0.000002 -0.000016 0.012750 -0.000096 -0.000109 -34.639899 0.000036 0.000015 0.015168 0.000025 -0.000010 0.012721 -0.000048 -0.000055 -24.223455 0.000013 -0.000013 -0.000048 -0.073023 0.030633 0.020258 7.012412 1.751778 7.564550 -8.277014 -15.533133 1.371288 0.024183 -0.030004 11.786593 0.012327 -0.002717 0.003929 0.023222 -0.032301 11.715974 0.089451 -0.130631 0.175108 0.022830 0.006865 11.753090 -0.154133 0.027260 -0.044371 0.050136 0.014753 11.743116 0.646568 0.597925 -1.496397 -0.004506 -0.052577 11.750675 0.000071 -0.000033 11.750675 
0.000000 0.000000 0.000000 0.000008 0.000000 -0.000000 -0.000000 0.000000 -0.000000 0.000000 -0.000000 0.118238 -0.016581 -0.715797 0.119416 0.112304 -1.254909 22.260671 -1.346019 2.882094 24.047832 -0.320078 0.786297 21.485149 0.330812 -1.183703 12.094638 0.133024 -1.724165 7.278080 -0.369578 0.690509 10.320345 -6.171112 5.657483 -5.255346 1.586310 -0.024514 -8.042948 -1.060317 -0.108362 5.400052 8.222037 -4.883082 -8.660962 -0.275255 -0.003111 1.288292 0.000101 -0.000136 0.000004 1.851497 -4.224740 -24.196877 1.652948 0.213551 8.447290 0.080172 0.004656 0.406664 -4.259608 3.672955 4.917908 -0.000888 0.000034 -0.003709 0.008859 -0.000622 0.038562 0.990967 -0.229044 -11.274974 0.917530 -0.020778 6.784389 1.532460 -0.153336 -0.014729 -0.332883 1.586899 -5.491691 0.000078 -0.000112 -0.000057 -0.000052 -0.014928 0.015041 0.062953 0.020907 -0.010463 -1.358239 0.409832 -0.217205 4.144080 -0.771967 0.392349 2.477761 -0.181911 -20.440538 -2.307557 -0.837006 19.444188 -3.267353 -0.968842 5.713836 -0.000973 -0.109309 2.665323 7.468113 1.229758 -1.714628 -3.074511 -0.038698 0.688096 -1.002798 -0.004208 -0.069919 -0.802207 0.160590 -0.479875 -0.804184 0.123489 -0.482624 -2.439700 -0.634583 19.946458 2.848087 -2.328986 7.146492 -0.002671 -0.059132 -1.443365 -8.642653 -2.044288 3.280350 4.947691 0.005284 -0.718852 2.712550 2.076282 -0.753174 0.036647 0.063820 2.451839 -0.000913 0.100573 2.451954 -0.023641 -0.074461 0.095102 -0.099457 0.063138 -0.286498 1.007425 -0.972131 3.831485 1.407262 2.386672 -6.694167 -0.035600 -0.059366 0.152923 1.623644 0.313250 -4.430005 -1.555795 -1.139932 -6.965015 -2.605552 -5.074007 27.708793 -0.000029 0.000324 33.480061 -0.441787 -0.458728 -72.796129 -0.000060 -0.000072 -21.993993 0.000020 -0.000008 -0.026805 0.000002 -0.000016 0.012747 -0.000096 -0.000110 -34.639902 0.000036 0.000015 0.015165 0.000025 -0.000010 0.012721 -0.000048 -0.000055 -24.223455 0.000013 -0.000013 -0.000048 -0.170847 -0.316265 0.033029 7.650603 2.254096 7.407295 -8.315051 -15.614902 1.358911 0.024203 -0.029998 11.786616 0.013018 -0.001065 0.003941 0.023238 -0.032303 11.715953 0.912752 -0.453986 0.108009 0.022831 0.006867 11.753085 0.629790 -0.358118 -0.153714 0.050144 0.014778 11.743111 0.646663 0.598152 -1.425330 -0.004489 -0.052598 11.750669 0.000072 -0.000033 11.750676 
0.000000 0.000000 0.000000 0.000008 0.000000 -0.000000 -0.000000 0.000000 -0.000000 0.000000 -0.000000 0.240649 -0.049909 -1.900512 0.302167 -0.567866 0.532753 21.914466 -1.287204 2.823428 24.378253 -0.124756 0.205086 21.796396 0.363298 -1.594838 12.392876 0.064794 -1.873680 7.775260 -1.362188 1.842037 10.218438 -5.737839 5.641668 -3.587987 2.878695 -0.211085 -14.658476 -2.822291 -0.519024 14.564982 11.565888 -6.470117 -25.803005 -0.126696 -0.000674 0.592753 0.000101 -0.000139 0.000003 3.026945 -4.428976 -23.025710 1.304075 0.147720 6.650046 0.201885 0.012854 1.024550 -4.193105 3.664173 4.781410 -0.000888 0.000034 -0.003709 0.008859 -0.000621 0.038562 2.620537 -0.622186 -10.826916 0.917530 -0.020778 6.784390 1.532488 -0.153336 -0.014729 -0.889049 1.673402 -5.451848 0.000078 -0.000113 -0.000056 -0.000052 -0.014928 0.015042 0.275516 0.071221 -0.077866 -1.358243 0.409831 -0.217201 3.666999 -0.851105 0.533652 0.654930 -1.059498 -20.297540 -0.884528 0.588375 19.057264 -3.321970 -0.951445 7.045378 -0.001129 -0.055898 1.363060 7.451520 1.203875 -2.111783 -3.074511 -0.038698 0.688096 -1.003101 -0.004106 -0.069961 -0.802234 0.160590 -0.479877 -0.804185 0.123489 -0.482624 -1.096015 0.857202 19.489982 2.824611 -2.292827 8.461090 -0.006803 -0.118010 -2.882352 -8.655582 -2.027119 3.435971 4.907747 0.005019 -1.042497 2.732989 2.076067 -0.754008 0.036673 0.063820 2.451840 -0.000914 0.100574 2.451954 -0.085734 -0.277079 0.352425 -0.133150 0.048896 -0.238655 0.984934 -1.002471 3.916087 3.721553 3.511696 -5.538020 -0.002996 -0.221399 0.448906 1.698998 0.400493 -4.108118 -1.492065 -1.026779 -6.732902 -2.224684 -5.128392 25.328069 -0.000029 0.000324 33.480061 -0.441786 -0.458728 -72.796129 -0.000060 -0.000072 -21.993995 0.000020 -0.000008 -0.026805 0.000002 -0.000016 0.012749 -0.000096 -0.000110 -34.639905 0.000036 0.000015 0.015165 0.000025 -0.000010 0.012721 -0.000049 -0.000055 -24.223455 0.000013 -0.000013 -0.000048 -0.587549 -1.179979 0.085417 9.131814 3.451877 6.893925 -8.352386 -15.695088 1.346726 0.024220 -0.029998 11.786635 0.013683 0.000519 0.003941 0.023250 -0.032294 11.715933 2.249450 -0.986000 0.060725 0.022829 0.006866 11.753083 1.931362 -0.956876 -0.289263 0.050159 0.014802 11.743114 0.646748 0.598354 -1.355635 -0.004472 -0.052618 11.750670 0.000071 -0.000033 11.750672 
0.000000 0.000000 0.000000 0.000008 0.000000 -0.000000 -0.000000 0.000000 -0.000000 0.000000 -0.000000 0.374275 -0.083307 -3.475597 0.537835 -1.369510 2.605732 21.696391 -1.343001 3.027982 24.673283 0.146269 -0.533316 22.135506 0.460957 -2.255400 12.672619 -0.034889 -2.207524 8.073282 -2.624715 3.377233 10.125643 -4.606412 5.518380 -3.666240 3.586978 -0.379352 -18.342955 -4.350068 -1.132007 22.888440 14.726019 -9.447902 -45.296233 0.303588 -0.003790 -1.421510 0.000101 -0.000139 -0.000001 4.495541 -4.663184 -21.765009 0.932313 0.089937 4.745047 0.331084 0.023009 1.681006 -4.125954 3.655151 4.643575 -0.000888 0.000034 -0.003709 0.008859 -0.000620 0.038562 4.698675 -1.095529 -10.213277 0.917530 -0.020778 6.784391 1.532543 -0.153334 -0.014728 -1.590894 1.784201 -5.365929 0.000078 -0.000112 -0.000056 -0.000052 -0.014927 0.015042 0.581260 0.146571 -0.175351 -1.358241 0.409830 -0.217202 2.366321 -1.074622 0.917740 -1.376420 -2.109862 -20.438911 0.677591 2.229658 18.794727 -3.390041 -0.937964 8.742068 0.000747 0.020194 -0.492780 7.424480 1.191485 -2.431733 -3.074510 -0.038699 0.688096 -1.003062 -0.004208 -0.069945 -0.802289 0.160590 -0.479881 -0.804184 0.123489 -0.482624 0.347040 2.598532 19.063750 2.805246 -2.252044 10.115444 -0.014533 -0.195661 -4.784906 -8.656320 -2.032443 3.899229 4.845834 0.000876 -1.550032 2.753583 2.075833 -0.754839 0.036728 0.063820 2.451839 -0.000913 0.100574 2.451954 -0.177911 -0.595081 0.754036 -0.186240 0.019058 -0.162008 0.938855 -1.043580 4.022093 6.416404 4.810077 -3.830031 0.081472 -0.477924 0.888285 1.802697 0.533855 -3.595536 -1.428176 -0.912247 -6.498636 -1.692793 -5.251643 22.184856 -0.000030 0.000323 33.480064 -0.441785 -0.458727 -72.796129 -0.000060 -0.000072 -21.993998 0.000020 -0.000008 -0.026800 0.000002 -0.000016 0.012750 -0.000096 -0.000110 -34.639895 0.000036 0.000015 0.015166 0.000026 -0.000010 0.012725 -0.000048 -0.000055 -24.223452 0.000013 -0.000013 -0.000051 -1.180811 -2.463737 0.182944 11.189205 5.100678 6.080517 -8.390121 -15.776055 1.334344 0.024251 -0.029982 11.786676 0.014358 0.002128 0.003938 0.023281 -0.032293 11.715886 4.041025 -1.700156 0.019443 0.022844 0.006889 11.753092 3.679480 -1.748970 -0.446170 0.050183 0.014850 11.743105 0.646854 0.598606 -1.269043 -0.004426 -0.052652 11.750682 0.000071 -0.000033 11.750675 
